<svg xmlns="http://www.w3.org/2000/svg" width="1200" height="800" viewBox="0 0 1200 800">
  <defs>
    <linearGradient id="bg" x1="0" y1="0" x2="1" y2="1">
      <stop offset="0" stop-color="#0b1220"/><stop offset="1" stop-color="#07121a"/>
    </linearGradient>
    <radialGradient id="glow1" cx="30%" cy="25%" r="60%">
      <stop offset="0" stop-color="#29f19a" stop-opacity=".25"/><stop offset="1" stop-color="#29f19a" stop-opacity="0"/>
    </radialGradient>
    <radialGradient id="glow2" cx="75%" cy="20%" r="55%">
      <stop offset="0" stop-color="#6ee7ff" stop-opacity=".18"/><stop offset="1" stop-color="#6ee7ff" stop-opacity="0"/>
    </radialGradient>
  </defs>
  <rect width="1200" height="800" fill="url(#bg)"/>
  <rect width="1200" height="800" fill="url(#glow1)"/>
  <rect width="1200" height="800" fill="url(#glow2)"/>
  <path d="M0 560 C180 460 340 520 520 480 C700 440 860 360 1200 420 L1200 800 L0 800 Z" fill="#0f2a23" opacity=".85"/>
  <path d="M0 610 C210 540 350 610 540 560 C760 500 920 470 1200 520 L1200 800 L0 800 Z" fill="#10362c" opacity=".85"/>
  <path d="M0 690 C260 640 420 700 640 660 C860 620 980 610 1200 660 L1200 800 L0 800 Z" fill="#134c3a" opacity=".75"/>
  <rect x="56" y="56" width="560" height="176" rx="22" fill="rgba(255,255,255,.06)" stroke="rgba(255,255,255,.12)"/>
  <text x="92" y="124" font-size="44" font-family="ui-sans-serif, system-ui" fill="rgba(255,255,255,.92)" font-weight="800">Portrait/Arbeit</text>
  <text x="92" y="170" font-size="26" font-family="ui-sans-serif, system-ui" fill="rgba(255,255,255,.72)" font-weight="600">Platzhalter für Foto von Jonas / Einsatz</text>
  <text x="56" y="760" font-size="18" font-family="ui-sans-serif, system-ui" fill="rgba(255,255,255,.55)">Platzhalter – später durch echte Fotos ersetzen</text>
</svg>